<svg xmlns="http://www.w3.org/2000/svg" fill="none" viewBox="0 0 996 545" preserveAspectRatio="none">
  <path fill="#110C11" d="M0 0v545h996V0H0zm482.1 15.42h-.02c2.07-.72 4.13-2.02 6.21-2.06 13.15-.28 26.32-.62 39.46-.3 36.97.88 73.91 2.23 110.88 3.05 10.63.23 21.29-.76 31.93-1.11 3.87-.13 7.75-.03 11.62-.03l.07-2.18-10.47-2.32.25-2.1c11.6 3.47 23.79-3.16 35.26 4.03 2.14 1.34 5.17 1.59 7.8 1.6 7.99 0 15.98 3.63 23.97 4.28 8.86.71 17.7-1.53 26.56-1.52 8.43.01 16.87.14 25.3 1.7 4.72.87 14.15.6 14.15.6s7 3.78 9.51 2.54c2.48-1.23 2.96-4.45 5.45-4.45 7.18.03 14.37 2.93 21.56 2.86 5.54-.06 11.08-2.1 16.62-2.07 5.12.03 10.25 4.03 15.37 4 9.06-.03 18.13 1.81 27.2.58 10.7-1.45 21.4-6.02 32.1-6 2.03 0 4.07-1.76 6.1-2.7l-.63-2.2h-15.33c15.08-.79 30.14 1.33 45.2 1.18 11.43-.12 11.51.32 11.51.32s-3.6 38.96-2.64 74.97c.15 5.8 6.27 11.54 6.33 17.01.12 9.68-1.81 18.57-1.82 25.7 0 7.75 3.04 18.5 2.64 26.22-.14 2.9.39 7.8-1.9 10.7-.87 1.1-2.26-3.17-3.57-2.5-1.76.93-3.38 6.75-3.37 8.24.01 4.39-1.22 11.9-.3 16.33.94 4.5 4.05 5.93 4.7 10.08 1.85 11.66 2.16 22.14 2.66 34.64.5 12.6-2.13 25.8 4.99 37.56.81 1.35.86 3.33.9 5.02.17 11 .3 22.01.34 33.02.1 35.1-2.93 70.2-2.78 105.29.1 21.78-1.37 43.2-.75 64.69.13 4.48 3.22 8.96 3.25 13.46.06 9.4-1.88 18.82-1.84 28.32.04 8.53-5.99 10.43-5.99 10.43s-23.09 2.09-34.13 2.38c-7.8.22-15.61-4.61-23.42-4.46-8.5.16-16.99 5.3-25.48 5.43-12.66.2-25.31-5.61-37.96-5.42-237.85 3.57-70.12-2.06-161.5-2.7-17.66-.11-35.3-.78-52.95-.28-39.19 1.12-78.37 4.06-117.56 3.72-8.33-.08-16.67-3.12-25-3.12-4.8 0-9.6.68-14.4.31-6.7-.5-13.4-2.08-20.09-1.94-9.19.18-18.38 3.47-27.57 3.83-7.49.3-14.97-2.43-22.46-2.19-12.5.41-24.99-.97-37.48-.3-28.84 1.52-57.68 5.3-86.51 5.3l-.01 3.2h151.06l-.03 1H192.43L197 536l54.7-1.1c-17.35-1.98-34.7-8.74-52.12-9.78-12.57-.75-25.18 3.88-37.87 4.06-.67.01 3.66 4.03 3 4.05-12.7.4-30.47-1.38-43.36-.86l3.98 2.58c-4.47-.57-7.98-1.52-11.44-1.36-13.17.6-26.3 1.79-39.48 2.33-19.24.8-38.5 1.31-57.75 1.7-2.2.05-4.43-1.5-6.65-2.3.17-.92 10.32.93 10.49 0l76.78-2.76c0-.55-6.28-1-6.28-1.56-6.44-.31-6.61-.96-13.06-1-21.37-.15-42.74-.23-64.11-.1-5.09.03-3.48 2.98-3.37-3.2.04-1.76-1.5-2.5-.86-4.26.63-1.72 4.08-4.3 4.39-7.03.44-3.85-2.4-8-2.41-10.43-.02-5.54-3.18-11.08-4.41-16.62-1.4-6.26-.87-12.51-.88-18.77-.05-17.52 5.6-35.06 6.07-52.56.03-.93-3.94-1.86-3.91-2.78.42-13.06 6.74-26.1 6.98-39.15.18-9.3-5.68-18.62-5.57-27.93.14-11.1-1.07-22.21.44-33.32.28-2.05 4.74-3.1 5.28-5.15 1.57-6.02-.22-13.03-.18-19.05.02-3.45-2.8-6.91-3.63-10.36-.76-3.16.5-6.32.4-9.48-.52-19.35 2.13-38.7 4.8-58.03.86-6.14 3.5-12.28 3.73-18.41.12-3.26-3.81-6.52-3.82-9.78-.02-5.96-6.01-11.93-6-17.9.1-28.25-.3-84.77-.3-84.77l.37-16.89-1.16-12.6 3.21.1a19.51 19.51 0 001.3-8.92c-.7-9.9-3.64-22.8-3.15-32.64 5.26 0 12.46-.42 17.58.08 13.12 1.26 26.18 4 39.3 4.25 10.85.21 21.7 3.27 32.56 3.24 8-.03 16.01-1.21 24.02-1.49 34.53-1.2 69.06-3.15 103.6-2.77 4.17.04 8.35 0 12.53 0V12.1L211.5 9.73l.14-2.05c24.88 0 41.75 1 66.63 1 0 .45 8.03 1.35 8.03 1.35h-38.94c3.47 1.46 6.96 1.65 10.44 1.91 21.06 1.58 42.1 6.28 63.16 6.51 13.4.15 47.8.15 61.2.07 4.83-.04-11.33-7.08-6.5-7.13 4-.04 8.01 6.9 12.02 6.85 16.99-.23 33.97-.54 50.95-.8 14.5-.23 28.98-1.32 43.47-2.02zm-476.41 208h.78v102.3l-.78-.02V223.43zm481.99 313.64l-.02.93h-38.2l.02-.93h38.2z" opacity=".5"/>
  <path fill="#0E0B0B" d="M996 0v545H0V0h996zM513.9 12.42h.02c-2.07-.72-4.13-2.02-6.21-2.06-13.15-.28-26.32-.62-39.46-.3-13.11.31-26.22.67-39.33 1.07-1.92.05-11.83-3.89-13.74-3.83-1.91.06 4.18 4.11 2.27 4.17-20.02.6-40.05 1.2-60.08 1.64-10.63.23-21.29-.76-31.93-1.11-3.87-.13-7.75-.03-11.62-.03l-.07-2.18 10.47-2.32-.25-2.1C312.37 8.83 300.18.21 288.7 7.4c-2.14 1.34-5.17 1.59-7.79 1.6-16.85.02-33.7.74-50.54.76-11.3.02-22.59 3.14-33.88 3.25-6.84.07-13.68-2.88-20.52-2.86-4.52.02-9.03 4.11-13.55 4.23-8.2.21-16.42-3.49-24.63-3.44-24.9.15-49.78.53-74.67.59-2.14-.13-4.22-.7-6.12-1.71.13-.44.35-.84.65-1.19 0 0 22.21-2 27.32-2-15.08-.8-42.14-.68-57.2-.83-11.43-.12-17.51.32-17.51.32S7.3 33.14 7.33 63.43c0 4.12 5.1 5.3 5.24 9.48.23 6.68-3.22 13.68-2.84 20.55.32 5.74 4.51 11.4 4.3 16.7-.32 7.98-2.63 15.16-2.63 20.65.01 7.74-2.04 34.49-1.64 42.2.28 5.5 2.87-12.03 2.85-6.55-.05 12.01-2.11 28.03-2.3 40.04-.16 9.34 1.6 18.68 1.23 28.01-.5 12.6 4.13 25.8-2.98 37.57-.82 1.34-.87 3.32-.9 5.01-.17 11-.31 22.02-.34 33.02-.1 35.1-.08 70.2-.23 105.3-.02 4.63.17 10.04.46 15.94.11 2.34 2.24-12.25 2.38-9.77.8 14.62-.12 48.33-.2 63.58-.02 2.65-2.07 3.25-2.14 5.8-.63 22.38-1.16 41.91-1.16 41.91s1.56.04 9.99.43c7.41.35 14.82-1.28 22.24-.99 3.63.15 7.26 2.28 10.9 2.38 7.98.21 15.96 4.39 23.94 4.54 8.32.16 16.64-3.7 24.95-3.58 16.14.25 32.27 3.5 48.4 3.73 14.22.22 28.44-1.69 42.66-1.64 3.68.02 7.36 2.06 11.05 2.14 23.72.46 47.44-.03 71.16.3 1.3.02 2.62-.73 3.93-1.11l-.28-2.01s-51.16-2-71.24-2c0-.74 11.01-1.47 11.02-2.21 43.06 0 86.12 2.01 129.19 1.64 1.72-.01 11.44 4.97 13.16 4.95 1.44-.02-7.11-5.43-5.67-5.95a43.1 43.1 0 019.95-2.42c20.9-.94 41.82-.22 62.73-.22 8.33 0 16.66 4.02 25 4.04 66.88.24 137.56-4.2 206-4.79 17.66-.15 35.17 2.75 52.42 2.75 0 1.07-5.99 2.13-5.99 3.2l21.06-1.16c.09 2.86 43.68 2.16 64.57 2.16 0 0 16-1.44 16-2.16H744.3c27.5-3.12 55.02-6.02 82.88-5.8 2.67.03 5.34 2.12 8.01 2.26 13.06.67 26.2.48 39.45 1.02l-3.98 2.58c4.47-.57 7.98-1.53 11.44-1.37 13.17.6 26.31 1.8 39.48 2.34a2720 2720 0 0057.75 1.7c2.2.05 4.44-1.5 6.65-2.3-.16-.92-32.33.16-32.5-.76-.16-.92-54.77-2-54.77-2s3.57-1.35 10.01-1.67c6.44-.31 2.88-.85 9.33-.9 21.37-.15 42.74-.22 64.12-.1 5.08.03 9.36-.2 9.36-.2s-.12-14.7-.13-19.06c0-13.35-1.73-27.7-1.7-41.04.05-18.45.44-36.92-.16-55.35-.36-11.2-2.12-22.41-2.13-33.61 0-2.44 2.94-4.87 2.79-7.3-.53-8.72-3.96-17.44-4.07-26.16-.44-35.73-.19-71.47-.7-107.2-.08-5.11-2.13-10.23-2.15-15.34-.04-11.34 1.93-22.67 1.9-34-.02-4.78-2.03-9.55-2.05-14.33 0-3.54 1.98-7.07 1.97-10.6-.01-3.02 2-6.04 2.04-9.06.09-6.44-1.87-12.89-1.84-19.33.03-8 2.4-16.02 2.82-24.02.56-10.8-.78-21.58-.72-32.37.05-8.63 1.12-17.28 1.63-25.89.88-14.54-.88-33.06.2-47.6-.67-.03-1.35 3.93-2.03 3.89 0 13.03-2 39.1-2 39.1l-.21.12-2.15-43.57-60.58.08 25.21 2s24.58.49 19.3 1.12c-4.93.59-33.87 1.04-38.8 1.13-18.72.37-40.44.15-59.16.78-2.9.1-2.82 2.18-5.73 2.2-31.76.38-63.53-1.35-95.3-1-4.18.04-8.35 0-12.53 0V12.1l29.24-2.36-.14-2.05h-74.63l-.02 1.35h38.93c-3.47 1.46-6.96 1.65-10.44 1.91-21.06 1.58-42.1 1.28-63.16 1.51-13.4.15-47.8.15-61.2.07-4.84-.04 11.33-7.08 6.49-7.13-4-.04-12.01 3.85-12.01 3.85s-33.98 2.46-50.96 2.2c-2-.03-4.01-.08-6.02-.14-1.08-.03-2.17-4.07-3.25-4.11-1.08-.04-2.16 3.92-3.24 3.87-10.32-.45-20.63 1.86-30.95 1.36zm476.42 211h-.8c0 18.4-2 36.8-2 55.2 0 15.7 2 31.4 2 47.1l.8-.02V223.43z" opacity=".9"/>
</svg>
